<svg width="52" height="52" viewBox="0 0 52 52" fill="none" xmlns="http://www.w3.org/2000/svg">
<circle cx="26" cy="26" r="25.5" fill="#050401" stroke="#F0F7F4"/>
<path d="M27.75 24.25H16.5C16.2239 24.25 16 24.4739 16 24.75V27.25C16 27.5261 16.2239 27.75 16.5 27.75H27.75C28.0261 27.75 28.25 27.9739 28.25 28.25V30.8125V31.9597C28.25 32.3789 28.735 32.612 29.0623 32.3501L36.512 26.3904C36.7622 26.1903 36.7622 25.8097 36.512 25.6096L29.0623 19.6499C28.735 19.388 28.25 19.6211 28.25 20.0403V21.625V23.75C28.25 24.0261 28.0261 24.25 27.75 24.25Z" stroke="#F0F7F4"/>
</svg>
